<?xml version="1.0" standalone="no"?><!DOCTYPE svg PUBLIC "-//W3C//DTD SVG 1.1//EN" "http://www.w3.org/Graphics/SVG/1.1/DTD/svg11.dtd"><svg id="gv-scatterplot-1" width="1680" height="840" version="1.1" xmlns="http://www.w3.org/2000/svg" xmlns:xlink="http://www.w3.org/1999/xlink" style="block-size:840px;height:840px;inline-size:1680px;perspective-origin:840px 420px;transform-origin:840px 420px;width:1680px;"><g style="block-size:auto;height:auto;inline-size:auto;overflow-x:visible;overflow-y:visible;perspective-origin:0px 0px;transform-origin:0px 0px;width:auto;"><g transform="translate(0,820)" class="xaxis" fill="none" font-size="10" font-family="sans-serif" text-anchor="middle" style="block-size:auto;fill:none;font-family:sans-serif;font-size:10px;height:auto;inline-size:auto;overflow-x:visible;overflow-y:visible;perspective-origin:0px 0px;text-anchor:middle;transform:matrix(1, 0, 0, 1, 0, 820);transform-origin:0px 0px;width:auto;"><path class="domain" stroke="currentColor" d="M0,6V0H1660V6" style="block-size:auto;d:path(&quot;M 0 6 V 0 H 1660 V 6&quot;);display:none;fill:none;font-family:sans-serif;font-size:10px;height:auto;inline-size:auto;overflow-x:visible;overflow-y:visible;perspective-origin:50% 50%;stroke:rgb(0, 0, 0);stroke-linecap:round;stroke-linejoin:round;text-anchor:middle;transform-origin:0px 0px;width:auto;"/><g class="tick" opacity="1" transform="translate(0,0)" style="block-size:auto;fill:none;font-family:sans-serif;font-size:10px;height:auto;inline-size:auto;overflow-x:visible;overflow-y:visible;perspective-origin:0px 0px;text-anchor:middle;transform:matrix(1, 0, 0, 1, 0, 0);transform-origin:0px 0px;width:auto;"><line stroke="currentColor" y2="6" style="block-size:auto;fill:none;font-family:sans-serif;font-size:10px;height:auto;inline-size:auto;overflow-x:visible;overflow-y:visible;perspective-origin:0px 0px;stroke:rgb(186, 186, 186);stroke-width:2px;text-anchor:middle;transform-origin:0px 0px;width:auto;"/><text fill="currentColor" y="9" dy="0.71em" style="block-size:auto;display:block;fill:rgb(118, 118, 118);font-family:&quot;Guardian Text Egyptian Web&quot;, Georgia, serif;height:auto;inline-size:auto;line-height:24px;overflow-x:visible;overflow-y:visible;perspective-origin:0px 0px;text-anchor:middle;transform-origin:0px 0px;white-space:nowrap;width:auto;">0</text></g><g class="tick" opacity="1" transform="translate(454.5454545454545,0)" style="block-size:auto;fill:none;font-family:sans-serif;font-size:10px;height:auto;inline-size:auto;overflow-x:visible;overflow-y:visible;perspective-origin:0px 0px;text-anchor:middle;transform:matrix(1, 0, 0, 1, 454.545, 0);transform-origin:0px 0px;width:auto;"><line stroke="currentColor" y2="6" style="block-size:auto;fill:none;font-family:sans-serif;font-size:10px;height:auto;inline-size:auto;overflow-x:visible;overflow-y:visible;perspective-origin:0px 0px;stroke:rgb(186, 186, 186);stroke-width:2px;text-anchor:middle;transform-origin:0px 0px;width:auto;"/><text fill="currentColor" y="9" dy="0.71em" style="block-size:auto;display:block;fill:rgb(118, 118, 118);font-family:&quot;Guardian Text Egyptian Web&quot;, Georgia, serif;height:auto;inline-size:auto;line-height:24px;overflow-x:visible;overflow-y:visible;perspective-origin:0px 0px;text-anchor:middle;transform-origin:0px 0px;white-space:nowrap;width:auto;">5</text></g><g class="tick" opacity="1" transform="translate(909.090909090909,0)" style="block-size:auto;fill:none;font-family:sans-serif;font-size:10px;height:auto;inline-size:auto;overflow-x:visible;overflow-y:visible;perspective-origin:0px 0px;text-anchor:middle;transform:matrix(1, 0, 0, 1, 909.091, 0);transform-origin:0px 0px;width:auto;"><line stroke="currentColor" y2="6" style="block-size:auto;fill:none;font-family:sans-serif;font-size:10px;height:auto;inline-size:auto;overflow-x:visible;overflow-y:visible;perspective-origin:0px 0px;stroke:rgb(186, 186, 186);stroke-width:2px;text-anchor:middle;transform-origin:0px 0px;width:auto;"/><text fill="currentColor" y="9" dy="0.71em" style="block-size:auto;display:block;fill:rgb(118, 118, 118);font-family:&quot;Guardian Text Egyptian Web&quot;, Georgia, serif;height:auto;inline-size:auto;line-height:24px;overflow-x:visible;overflow-y:visible;perspective-origin:0px 0px;text-anchor:middle;transform-origin:0px 0px;white-space:nowrap;width:auto;">10</text></g><g class="tick" opacity="1" transform="translate(1363.6363636363635,0)" style="block-size:auto;fill:none;font-family:sans-serif;font-size:10px;height:auto;inline-size:auto;overflow-x:visible;overflow-y:visible;perspective-origin:0px 0px;text-anchor:middle;transform:matrix(1, 0, 0, 1, 1363.64, 0);transform-origin:0px 0px;width:auto;"><line stroke="currentColor" y2="6" style="block-size:auto;fill:none;font-family:sans-serif;font-size:10px;height:auto;inline-size:auto;overflow-x:visible;overflow-y:visible;perspective-origin:0px 0px;stroke:rgb(186, 186, 186);stroke-width:2px;text-anchor:middle;transform-origin:0px 0px;width:auto;"/><text fill="currentColor" y="9" dy="0.71em" style="block-size:auto;display:block;fill:rgb(118, 118, 118);font-family:&quot;Guardian Text Egyptian Web&quot;, Georgia, serif;height:auto;inline-size:auto;line-height:24px;overflow-x:visible;overflow-y:visible;perspective-origin:-7.65625px 0px;text-anchor:end;transform-origin:0px 0px;white-space:nowrap;width:auto;">15</text></g></g><g class="yaxis" fill="none" font-size="10" font-family="sans-serif" text-anchor="end" style="block-size:auto;fill:none;font-family:sans-serif;font-size:10px;height:auto;inline-size:auto;overflow-x:visible;overflow-y:visible;perspective-origin:0px 0px;text-anchor:end;transform-origin:0px 0px;width:auto;"><path class="domain" stroke="currentColor" d="M-6,20H0V820H-6" style="block-size:auto;d:path(&quot;M -6 20 H 0 V 820 H -6&quot;);display:none;fill:none;font-family:sans-serif;font-size:10px;height:auto;inline-size:auto;overflow-x:visible;overflow-y:visible;perspective-origin:50% 50%;stroke:rgb(0, 0, 0);stroke-linecap:round;stroke-linejoin:round;text-anchor:end;transform-origin:0px 0px;width:auto;"/><g class="tick" opacity="1" transform="translate(0,169.27606962746057)" style="block-size:auto;fill:none;font-family:sans-serif;font-size:10px;height:auto;inline-size:auto;overflow-x:visible;overflow-y:visible;perspective-origin:0px 0px;transform:matrix(1, 0, 0, 1, 0, 169.276);transform-origin:0px 0px;width:auto;"><line stroke="currentColor" x2="1680" style="block-size:auto;fill:none;font-family:sans-serif;font-size:10px;height:auto;inline-size:auto;overflow-x:visible;overflow-y:visible;perspective-origin:0px 0px;stroke:rgb(186, 186, 186);stroke-dasharray:0px, 4px;stroke-linecap:round;stroke-width:2px;transform-origin:0px 0px;width:auto;"/><text fill="currentColor" x="-3" dy="-10px" dx="5" style="block-size:auto;display:block;fill:rgb(118, 118, 118);font-family:&quot;Guardian Text Egyptian Web&quot;, Georgia, serif;height:auto;inline-size:auto;line-height:24px;overflow-x:visible;overflow-y:visible;perspective-origin:15.25px 0px;transform-origin:0px 0px;white-space:nowrap;width:auto;y:-10px;">100</text></g><g class="tick" opacity="1" transform="translate(0,494.6380348137302)" style="block-size:auto;fill:none;font-family:sans-serif;font-size:10px;height:auto;inline-size:auto;overflow-x:visible;overflow-y:visible;perspective-origin:0px 0px;transform:matrix(1, 0, 0, 1, 0, 494.638);transform-origin:0px 0px;width:auto;"><line stroke="currentColor" x2="1680" style="block-size:auto;fill:none;font-family:sans-serif;font-size:10px;height:auto;inline-size:auto;overflow-x:visible;overflow-y:visible;perspective-origin:0px 0px;stroke:rgb(186, 186, 186);stroke-dasharray:0px, 4px;stroke-linecap:round;stroke-width:2px;transform-origin:0px 0px;width:auto;"/><text fill="currentColor" x="-3" dy="-10px" dx="5" style="block-size:auto;display:block;fill:rgb(118, 118, 118);font-family:&quot;Guardian Text Egyptian Web&quot;, Georgia, serif;height:auto;inline-size:auto;line-height:24px;overflow-x:visible;overflow-y:visible;perspective-origin:11.1406px 0px;transform-origin:0px 0px;white-space:nowrap;width:auto;y:-10px;">50</text></g><g class="tick" opacity="1" transform="translate(0,820)" style="block-size:auto;fill:none;font-family:sans-serif;font-size:10px;height:auto;inline-size:auto;overflow-x:visible;overflow-y:visible;perspective-origin:0px 0px;transform:matrix(1, 0, 0, 1, 0, 820);transform-origin:0px 0px;width:auto;"><line stroke="currentColor" x2="1680" style="block-size:auto;fill:none;font-family:sans-serif;font-size:10px;height:auto;inline-size:auto;overflow-x:visible;overflow-y:visible;perspective-origin:0px 0px;stroke:rgb(186, 186, 186);stroke-dasharray:0px, 4px;stroke-linecap:round;stroke-width:2px;transform-origin:0px 0px;width:auto;"/><text fill="currentColor" x="-3" dy="-10px" dx="5" style="block-size:auto;display:block;fill:rgb(118, 118, 118);font-family:&quot;Guardian Text Egyptian Web&quot;, Georgia, serif;height:auto;inline-size:auto;line-height:24px;overflow-x:visible;overflow-y:visible;perspective-origin:6.90625px 0px;transform-origin:0px 0px;white-space:nowrap;width:auto;y:-10px;">0</text></g></g></g><g style="block-size:auto;height:auto;inline-size:auto;overflow-x:visible;overflow-y:visible;perspective-origin:0px 0px;transform-origin:0px 0px;width:auto;"/><g style="block-size:auto;height:auto;inline-size:auto;overflow-x:visible;overflow-y:visible;perspective-origin:0px 0px;transform-origin:0px 0px;width:auto;"><path class="ISR covid-line red-line" d="M178.18181818181816,820C178.18181818181816,820,193.21283532817282,807.8322811694586,203.63636363636363,798.6562550837808C221.17683436282724,783.2150520494283,245.7421724898099,753.941044621651,272.7272727272727,734.8202375142346C303.381485294365,713.0996109326293,345.3420037371528,694.2878210766685,379.99999999999994,678.0120383927118C411.1937801256897,663.3630903529455,441.2909392810621,659.0900689239783,470.9090909090909,640.5303400032536C505.79885735514245,618.6672401218513,552.3414734529106,583.5262584956835,572.7272727272726,549.6892793232471C589.7171953450732,521.4888810939353,605.8567679435804,481.42532196120027,595.4545454545454,457.67691556857C584.3018770271373,432.21523154330197,529.7525675914042,424.5004154566709,499.99999999999994,405.16349438750603C471.4284523486247,386.5941470509709,452.5466788758466,363.2320880534292,419.99999999999994,344.38587929071093C377.5693907689554,319.8163641476152,269.8929474287632,304.89681349439667,262.72727272727275,277.8818936066374C257.93445488332003,259.81275211127,313.8063073060815,233.84495762579766,309.09090909090907,217.16935090287944C302.9040549260459,195.2900647434743,197.0588768038283,191.19019305547792,186.36363636363635,169.926793557833C180.16976418402106,157.61264509815194,202.85652361202568,139.67465949247773,198.18181818181816,127.43452090450623C192.376349475047,112.23361838777672,153.7532039727037,101.63074731116693,140.9090909090909,90.73369123149504C133.21000525244304,84.20172069003593,130.55529761676544,77.47842776119792,124.54545454545455,72.57849357410116C118.96383191277036,68.02769528655176,112.81987527128842,65.43297122178585,106.36363636363635,61.90662111599153C99.26602196039401,58.02995644174962,91.61425547622267,53.257377081684076,83.63636363636364,50.38880754839761C75.56330101504096,47.48601794674651,67.03248833033628,46.48284170163565,58.18181818181818,44.662436961119205C48.60970848389329,42.69364662338828,35.15716731720743,41.50049003154106,28.181818181818183,39.066211159915355C24.131902035476614,37.6528589225517,20.18858961640377,36.0744442684102,19.09090909090909,34.2508540751586C18.46745441569317,33.21510113497754,19.80127038266708,31.806536853746884,19.09090909090909,30.932162030258574C17.735959256754906,29.26437123729164,7.24008949246095,29.143352571279873,7.2727272727272725,28.459411094843006C7.310840079563719,27.660737619926255,23.59191352501657,27.404283837679074,23.636363636363633,26.63738408979988C23.668106600543236,26.089721317119597,15.795321821653834,25.636258969655294,15.454545454545453,24.750284691719564C15.306369947412424,24.365047625388037,16.324414596811014,23.935615779295397,16.363636363636363,23.4488368309745C16.408689431506897,22.889685962164652,16.195466253878113,22.07520073295652,15.454545454545453,21.561737432894095C13.322582182693333,20.084271962680482,-1.8181818181818181,20,-1.8181818181818181,20" style="block-size:auto;d:path(&quot;M 178.182 820 C 178.182 820 193.213 807.832 203.636 798.656 C 221.177 783.215 245.742 753.941 272.727 734.82 C 303.382 713.1 345.342 694.288 380 678.012 C 411.194 663.363 441.291 659.09 470.909 640.53 C 505.799 618.667 552.341 583.526 572.727 549.689 C 589.717 521.489 605.857 481.425 595.455 457.677 C 584.302 432.215 529.753 424.5 500 405.163 C 471.428 386.594 452.547 363.232 420 344.386 C 377.569 319.816 269.893 304.897 262.727 277.882 C 257.934 259.813 313.806 233.845 309.091 217.169 C 302.904 195.29 197.059 191.19 186.364 169.927 C 180.17 157.613 202.857 139.675 198.182 127.435 C 192.376 112.234 153.753 101.631 140.909 90.7337 C 133.21 84.2017 130.555 77.4784 124.545 72.5785 C 118.964 68.0277 112.82 65.433 106.364 61.9066 C 99.266 58.03 91.6143 53.2574 83.6364 50.3888 C 75.5633 47.486 67.0325 46.4828 58.1818 44.6624 C 48.6097 42.6936 35.1572 41.5005 28.1818 39.0662 C 24.1319 37.6529 20.1886 36.0744 19.0909 34.2509 C 18.4675 33.2151 19.8013 31.8065 19.0909 30.9322 C 17.736 29.2644 7.24009 29.1434 7.27273 28.4594 C 7.31084 27.6607 23.5919 27.4043 23.6364 26.6374 C 23.6681 26.0897 15.7953 25.6363 15.4545 24.7503 C 15.3064 24.365 16.3244 23.9356 16.3636 23.4488 C 16.4087 22.8897 16.1955 22.0752 15.4545 21.5617 C 13.3226 20.0843 -1.81818 20 -1.81818 20&quot;);fill:none;height:auto;inline-size:auto;overflow-x:visible;overflow-y:visible;perspective-origin:0px 0px;stroke:rgb(199, 0, 0);stroke-linecap:round;stroke-linejoin:round;stroke-width:3px;transform-origin:0px 0px;transition-duration:0.4s;transition-property:stroke;width:auto;"/><path class="USA covid-line red-line" d="M472.7272727272727,818.8937693183667C472.7272727272727,818.8937693183667,594.9849163301168,817.706788281883,644.5454545454544,816.2258012038392C682.371214112556,815.0954772978988,707.1230353454634,813.1793776080399,744.5454545454544,811.800878477306C792.4033250568835,810.0379771387741,878.0789167332905,813.8153775535324,908.1818181818182,806.9855213925492C920.3715446354619,804.2198717603211,933.0218864600193,799.7903657971824,932.7272727272726,796.1184317553278C932.2403980893286,790.050243621274,865.9156194850594,787.0768436970602,861.8181818181816,777.5077273466732C859.6424774476898,772.4266083747901,873.7352476343249,764.6814149604079,871.8181818181819,759.4176020823165C868.7039469034811,750.8666437837726,842.3185729332604,745.6800380528829,820.9090909090908,739.8308117781031C786.9366078977162,730.5492822191297,732.7554853630826,723.9668129410204,685.4545454545454,717.1205466081014C633.7776427099815,709.6409100483684,527.8002186676413,711.5081510672103,522.7272727272726,697.2734667317391C520.4572068761253,690.9036628363981,547.1051730441332,680.7986559450229,545.4545454545454,673.5871156661786C542.8080885318006,662.0248281974668,495.7048219549419,653.578053398611,466.3636363636363,644.1743940133398C430.7502564169406,632.760537080571,379.7728006692229,624.7032679264049,346.3636363636363,611.7032698877501C320.63738507518605,601.6928064941516,291.9818195949734,592.5616027779314,280.9090909090909,577.8005531153409C272.9936009657329,567.2484170093952,280.3635226779021,552.4742702815232,273.6363636363636,540.8394338701805C264.8747804027938,525.6859958441883,225.73115286806015,513.0831573178709,225.45454545454547,498.86774036115173C225.1811021462658,484.8149332008926,272.33514120858956,469.50031350216096,270.9090909090909,456.05010574263866C269.2556448777089,440.45514906469907,209.50147061824734,429.5778934514114,199.09090909090907,412.581747193753C192.12543545425157,401.2100062582031,198.27841263081763,387.11059455482535,196.36363636363637,375.1000488042948C194.5442964896366,363.6881333930984,190.86689555814618,352.6482282521867,188.18181818181816,342.1734179274442C185.72216806217264,332.5780264889483,185.37281835006053,323.19954037533734,180.9090909090909,314.64779567268585C176.05157082384994,305.341611053143,164.32091597654292,297.9276793479468,159.09090909090907,288.94420042297054C154.45697922761187,280.9845911572356,147.9455002883148,271.09368540025025,149.99999999999997,264.08654628273945C152.17580539232432,256.6656783264515,174.6471696946344,250.92123111600017,173.6363636363636,246.1265658044574C172.24709818776225,239.53671327990014,132.14128599958877,239.40895980285083,119.09090909090908,233.1120871970067C110.50745377755162,228.97052676512212,106.67903881614447,223.2287715460879,100,218.14543679843828C92.791619871924,212.65922685296778,77.27272727272727,201.35675939482675,77.27272727272727,201.35675939482675" style="block-size:auto;d:path(&quot;M 472.727 818.894 C 472.727 818.894 594.985 817.707 644.545 816.226 C 682.371 815.095 707.123 813.179 744.545 811.801 C 792.403 810.038 878.079 813.815 908.182 806.986 C 920.372 804.22 933.022 799.79 932.727 796.118 C 932.24 790.05 865.916 787.077 861.818 777.508 C 859.642 772.427 873.735 764.681 871.818 759.418 C 868.704 750.867 842.319 745.68 820.909 739.831 C 786.937 730.549 732.755 723.967 685.455 717.121 C 633.778 709.641 527.8 711.508 522.727 697.273 C 520.457 690.904 547.105 680.799 545.455 673.587 C 542.808 662.025 495.705 653.578 466.364 644.174 C 430.75 632.761 379.773 624.703 346.364 611.703 C 320.637 601.693 291.982 592.562 280.909 577.801 C 272.994 567.248 280.364 552.474 273.636 540.839 C 264.875 525.686 225.731 513.083 225.455 498.868 C 225.181 484.815 272.335 469.5 270.909 456.05 C 269.256 440.455 209.501 429.578 199.091 412.582 C 192.125 401.21 198.278 387.111 196.364 375.1 C 194.544 363.688 190.867 352.648 188.182 342.173 C 185.722 332.578 185.373 323.2 180.909 314.648 C 176.052 305.342 164.321 297.928 159.091 288.944 C 154.457 280.985 147.945 271.094 150 264.087 C 152.176 256.666 174.647 250.921 173.636 246.127 C 172.247 239.537 132.141 239.409 119.091 233.112 C 110.507 228.971 106.679 223.229 100 218.145 C 92.7916 212.659 77.2727 201.357 77.2727 201.357&quot;);fill:none;height:auto;inline-size:auto;overflow-x:visible;overflow-y:visible;perspective-origin:0px 0px;stroke:rgb(0, 132, 198);stroke-linecap:round;stroke-linejoin:round;stroke-width:3px;transform-origin:0px 0px;transition-duration:0.4s;transition-property:stroke;width:auto;"/><path class="GBR covid-line red-line" d="M608.1818181818181,806.5300146412884C608.1818181818181,806.5300146412884,1061.2021615705667,801.2872725975533,1225.4545454545453,794.361477143322C1334.7364438583575,789.7535435639253,1419.2242550565702,785.1859826656989,1498.1818181818182,776.7268586302262C1559.2768368600478,770.1814395406211,1659.2672246760674,762.6359710823117,1660,752.4548560273305C1660.5469039796749,744.85622086694,1612.365780626917,733.6099115059885,1572.7272727272725,726.1656092402799C1493.1338764880127,711.2175869418753,1323.0803687543719,707.3994709493996,1206.3636363636363,697.2734667317391C1099.4004329134546,687.993650315657,995.8571466830133,677.4945936355214,899.090909090909,668.1861070440866C812.4319235754847,659.8498936625355,732.3942494700893,652.7808490317957,652.7272727272726,644.1093216203026C577.5091874861387,635.922043595254,495.18990191935853,627.6120069621153,433.63636363636357,617.820074833252C388.3268639101839,610.6122431068007,355.82400065749636,602.3852385651159,316.3636363636363,594.5241581259152C276.141434372336,586.5113084993701,229.11115691935882,582.8897475625241,194.54545454545453,570.187083129982C166.2575057941022,559.7914511654872,141.44069039533653,544.317440775668,121.81818181818183,529.7771270538474C106.14260740701022,518.1614985621087,96.65380958336866,503.9194431968321,83.63636363636364,492.88108020172444C71.46576803504743,482.5608182501163,51.30653232961021,475.92248227640636,46.36363636363636,465.2253131608915C42.57541196690159,457.02702671133903,49.67613487018846,447.2151068555762,48.18181818181818,438.0250528713193C46.52413217081482,427.8302768585566,38.480400430766494,417.7623553818464,35.45454545454545,406.9855213925492C32.381782725558054,396.04162154307477,32.43250065075549,384.05043787336564,30,372.82251504799086C27.57848138204756,361.64528302787454,23.833122834008076,350.61273451300747,20.90909090909091,339.7657393850659C18.08251275702371,329.2802589828341,13.839469110626625,319.52711974569405,12.727272727272727,308.791280299333C11.562769306592951,297.55053006289,15.221797975772631,285.61540554018717,14.545454545454545,273.7172604522531C13.835855955210373,261.234094944239,8.626045063003744,248.3085074612596,8.181818181818182,235.58483813242228C7.740754932754879,222.95178243077984,11.401493333522989,209.87681038503382,11.818181818181817,197.6476329917033C12.20671211768628,186.24485578461483,10.901689704972963,175.4329915828366,10.909090909090908,164.525784935741C10.916315656176838,153.87862425979483,11.33910095737192,143.15277836352203,11.818181818181817,132.9656743126729C12.268616189827057,123.3877049396703,13.636363636363633,105.11469009272813,13.636363636363633,105.11469009272813" style="block-size:auto;d:path(&quot;M 608.182 806.53 C 608.182 806.53 1061.2 801.287 1225.45 794.361 C 1334.74 789.754 1419.22 785.186 1498.18 776.727 C 1559.28 770.181 1659.27 762.636 1660 752.455 C 1660.55 744.856 1612.37 733.61 1572.73 726.166 C 1493.13 711.218 1323.08 707.399 1206.36 697.273 C 1099.4 687.994 995.857 677.495 899.091 668.186 C 812.432 659.85 732.394 652.781 652.727 644.109 C 577.509 635.922 495.19 627.612 433.636 617.82 C 388.327 610.612 355.824 602.385 316.364 594.524 C 276.141 586.511 229.111 582.89 194.545 570.187 C 166.258 559.791 141.441 544.317 121.818 529.777 C 106.143 518.161 96.6538 503.919 83.6364 492.881 C 71.4658 482.561 51.3065 475.922 46.3636 465.225 C 42.5754 457.027 49.6761 447.215 48.1818 438.025 C 46.5241 427.83 38.4804 417.762 35.4545 406.986 C 32.3818 396.042 32.4325 384.05 30 372.823 C 27.5785 361.645 23.8331 350.613 20.9091 339.766 C 18.0825 329.28 13.8395 319.527 12.7273 308.791 C 11.5628 297.551 15.2218 285.615 14.5455 273.717 C 13.8359 261.234 8.62605 248.309 8.18182 235.585 C 7.74076 222.952 11.4015 209.877 11.8182 197.648 C 12.2067 186.245 10.9017 175.433 10.9091 164.526 C 10.9163 153.879 11.3391 143.153 11.8182 132.966 C 12.2686 123.388 13.6364 105.115 13.6364 105.115&quot;);fill:none;height:auto;inline-size:auto;overflow-x:visible;overflow-y:visible;perspective-origin:0px 0px;stroke:rgb(199, 0, 0);stroke-linecap:round;stroke-linejoin:round;stroke-width:3px;transform-origin:0px 0px;transition-duration:0.4s;transition-property:stroke;width:auto;"/><path class="ESP covid-line red-line" d="M468.1818181818182,818.8286969253294C468.1818181818182,818.8286969253294,332.7850057514332,816.6392209014655,332.72727272727275,814.3387018057589C332.6823374170424,812.5481401513209,379.4999731030985,809.33219028393,414.5454545454545,807.5061005368473C477.2432305037925,804.2391525272807,606.4891400025571,804.337942604973,677.2727272727273,802.0400195217179C725.309490386603,800.4805508502175,760.3687960608612,798.9173500884785,798.181818181818,796.7040832926631C831.6473202941168,794.7452849614031,892.1156627305689,793.918258086749,892.7272727272726,789.8064096307141C892.9903468168364,788.0377649145955,885.3646501814856,785.3011511012703,876.3636363636364,783.4943875061006C841.1000764212574,776.415971937665,664.3814714152627,781.7158324140003,607.2727272727273,775.945989913779C580.313546208411,773.2222348914692,565.9391354068367,769.9712433313724,548.1818181818181,765.5994794208557C533.1567803469578,761.9003892188716,526.8177324376168,756.045725808617,507.27272727272725,752.5199284203678C461.75010772377954,744.3079309428603,275.2335922392086,748.1025908849517,274.54545454545456,741.4576216040344C274.2691329755669,738.7893353580926,294.5391069539813,735.0846620712583,310.9090909090909,732.0221246136326C343.6303700993208,725.9005460307637,460.1529721643294,719.6379283012019,459.9999999999999,714.6477956726858C459.78423145626624,707.6091709986354,166.40489424136234,715.7870830624894,161.8181818181818,698.3146250203351C159.88865397920526,690.9643507722042,206.42466153771153,679.335452943463,206.36363636363635,669.8779892630552C206.30163053988616,660.2685479959362,162.95641286614068,652.3783520265275,159.99999999999997,641.115991540589C157.66619059726847,632.2254190836553,176.7174451909076,621.459548603632,176.36363636363635,611.3128355295266C175.97836085712765,600.2637047060408,156.04567892137473,589.4142444075175,154.54545454545453,577.4101187571174C153.04969665569126,565.4417319347917,168.30632716005437,551.4888531718639,167.27272727272728,539.4078412233611C166.26156504167022,527.5890870370915,159.53795750863029,515.3167542927313,149.09090909090907,505.6352692370262C134.1378754989615,491.77799917667795,89.80181251823107,487.70205128977364,77.27272727272727,473.74979664877173C69.18602810595553,464.7445353891386,67.73950896103305,454.0892241845279,67.27272727272727,442.5801203839271C66.70761482577184,428.64654506603495,76.40376551006457,411.2932245874669,78.18181818181817,395.85814218317876C79.88307882319502,381.0896830660896,82.44234455072149,366.06448273466316,78.18181818181817,351.93427688303234C73.44598459124084,336.22769564876324,48.18181818181818,306.7089637221409,48.18181818181818,306.7089637221409" style="block-size:auto;d:path(&quot;M 468.182 818.829 C 468.182 818.829 332.785 816.639 332.727 814.339 C 332.682 812.548 379.5 809.332 414.545 807.506 C 477.243 804.239 606.489 804.338 677.273 802.04 C 725.31 800.481 760.369 798.917 798.182 796.704 C 831.647 794.745 892.116 793.918 892.727 789.806 C 892.99 788.038 885.365 785.301 876.364 783.494 C 841.1 776.416 664.381 781.716 607.273 775.946 C 580.314 773.222 565.939 769.971 548.182 765.599 C 533.157 761.9 526.818 756.046 507.273 752.52 C 461.75 744.308 275.234 748.103 274.545 741.458 C 274.269 738.789 294.539 735.085 310.909 732.022 C 343.63 725.901 460.153 719.638 460 714.648 C 459.784 707.609 166.405 715.787 161.818 698.315 C 159.889 690.964 206.425 679.335 206.364 669.878 C 206.302 660.269 162.956 652.378 160 641.116 C 157.666 632.225 176.717 621.46 176.364 611.313 C 175.978 600.264 156.046 589.414 154.545 577.41 C 153.05 565.442 168.306 551.489 167.273 539.408 C 166.262 527.589 159.538 515.317 149.091 505.635 C 134.138 491.778 89.8018 487.702 77.2727 473.75 C 69.186 464.745 67.7395 454.089 67.2727 442.58 C 66.7076 428.647 76.4038 411.293 78.1818 395.858 C 79.8831 381.09 82.4423 366.064 78.1818 351.934 C 73.446 336.228 48.1818 306.709 48.1818 306.709&quot;);fill:none;height:auto;inline-size:auto;overflow-x:visible;overflow-y:visible;perspective-origin:0px 0px;stroke:rgb(199, 0, 0);stroke-linecap:round;stroke-linejoin:round;stroke-width:3px;transform-origin:0px 0px;transition-duration:0.4s;transition-property:stroke;width:auto;"/><path class="ITA covid-line red-line" d="M458.18181818181813,819.9349276069627C458.18181818181813,819.9349276069627,712.7332761619487,829.3075388544844,731.8181818181819,818.6334797462176C734.847355218185,816.9392834791134,734.8731743108328,814.8154176158087,735.4545454545454,812.7769643728648C735.9904033540053,810.8980935607777,736.8039870146957,808.3952252838765,735.4545454545454,806.920448999512C732.3943413715785,803.5760163540762,716.668727699176,805.4346010637186,705.4545454545454,804.2524808849846C691.0846038420988,802.7377027605756,673.855587346055,800.222755956323,656.3636363636363,798.2658207255572C636.328714256921,796.0243872253325,615.5579172592138,793.4726003643734,591.8181818181818,791.6935090287946C562.7331019805836,789.5138295769231,518.7061665282356,789.5614291317418,494.5454545454545,787.0082967301122C480.0598878572764,785.4775649497777,471.4661011098671,783.7185543214417,459.9999999999999,781.3469985358711C448.43494782844954,778.9549765115524,425.9727019682745,776.665648919243,425.4545454545454,772.6923702619164C425.01209713470126,769.2996299998,438.50958907473466,763.8757676912043,448.1818181818181,760.1333984057263C462.9748144089001,754.4097069890416,485.2001371293311,750.1179344920768,507.27272727272725,746.0777615096795C534.7921148255429,741.0406052284867,576.2484807631167,740.5827307369784,600.9090909090909,733.9742964047504C617.992480470722,729.396370010324,631.2890751622805,723.3608408278318,642.7272727272726,716.5348950707662C651.9178164459707,711.0502763145927,657.5007515224734,704.4341518219667,665.4545454545455,698.1194078412234C674.0989228077077,691.2563899752406,694.1604975945762,682.9893167881887,692.7272727272726,676.9058077110785C690.0502369471385,665.5427816851378,609.6120763052056,662.6039819157588,574.5454545454545,653.1543842524809C545.5201160639564,645.3327648056535,522.4452428783068,636.2007966551994,496.3636363636363,626.539775500244C469.71888680725107,616.6701576533551,440.8146361099493,606.4129375825967,416.3636363636363,594.4590857328778C394.2479666303194,583.6469536199876,376.68057779876824,570.6137103924362,355.45454545454544,558.9295591345372C332.8636964689795,546.4941264398558,306.2753390307286,535.1470430179089,284.5454545454545,522.1636570684886C264.78746804551525,510.35846019843666,248.0378289909913,497.5392583606378,229.99999999999994,484.94224825117936C211.9774670316103,472.35592036691816,196.0773434073078,458.92222860451545,176.36363636363635,446.6146087522369C154.148336268383,432.74519962127187,112.92543623274403,423.8997774184354,102.7272727272727,406.7903042134374C95.47834060520934,394.6287606334829,108.4760323464149,377.28238844167913,102.7272727272727,364.4932487392224C95.836178776625,349.1627828515674,57.272727272727266,324.1483650561249,57.272727272727266,324.1483650561249" style="block-size:auto;d:path(&quot;M 458.182 819.935 C 458.182 819.935 712.733 829.308 731.818 818.633 C 734.847 816.939 734.873 814.815 735.455 812.777 C 735.99 810.898 736.804 808.395 735.455 806.92 C 732.394 803.576 716.669 805.435 705.455 804.253 C 691.085 802.738 673.856 800.223 656.364 798.266 C 636.329 796.024 615.558 793.473 591.818 791.693 C 562.733 789.514 518.706 789.561 494.545 787.008 C 480.06 785.478 471.466 783.719 460 781.347 C 448.435 778.955 425.973 776.666 425.455 772.692 C 425.012 769.3 438.51 763.876 448.182 760.133 C 462.975 754.41 485.2 750.118 507.273 746.078 C 534.792 741.041 576.248 740.583 600.909 733.974 C 617.992 729.396 631.289 723.361 642.727 716.535 C 651.918 711.05 657.501 704.434 665.455 698.119 C 674.099 691.256 694.161 682.989 692.727 676.906 C 690.05 665.543 609.612 662.604 574.545 653.154 C 545.52 645.333 522.445 636.201 496.364 626.54 C 469.719 616.67 440.815 606.413 416.364 594.459 C 394.248 583.647 376.681 570.614 355.455 558.93 C 332.864 546.494 306.275 535.147 284.545 522.164 C 264.787 510.358 248.038 497.539 230 484.942 C 211.977 472.356 196.077 458.922 176.364 446.615 C 154.148 432.745 112.925 423.9 102.727 406.79 C 95.4783 394.629 108.476 377.282 102.727 364.493 C 95.8362 349.163 57.2727 324.148 57.2727 324.148&quot;);fill:none;height:auto;inline-size:auto;overflow-x:visible;overflow-y:visible;perspective-origin:0px 0px;stroke:rgb(61, 181, 64);stroke-linecap:round;stroke-linejoin:round;stroke-width:3px;transform-origin:0px 0px;transition-duration:0.4s;transition-property:stroke;width:auto;"/><path class="FRA covid-line red-line" d="M240.90909090909088,820C240.90909090909088,820,400.47806803718356,820.3207931022248,455.45454545454544,820C489.7810521199481,819.7997014890907,539.0475300065098,820.1418487043859,539.090909090909,819.0239141044411C539.1195685125815,818.285324077802,502.7642859728042,817.2444849706251,502.7272727272727,815.7702944525786C502.68535820838014,814.1008924470898,533.4018181150396,811.2475382101424,549.0909090909091,809.263055148853C565.2070574825638,807.2245544131725,598.0200590206155,806.1056074873643,598.1818181818181,803.7319017406866C598.291005126913,802.1296575332692,582.5175759028353,800.7022693518413,576.3636363636363,798.20074833252C571.3906056161201,796.1792561054023,569.9779393054225,792.8992485884277,563.6363636363636,790.8475679193103C549.1443099379937,786.1589750552644,511.5510492223945,785.8313769405286,487.2727272727273,783.0388807548399C465.0775711782567,780.4859906142827,432.56275104500605,782.0546101963007,423.6363636363636,774.9048316251831C419.56344745224754,771.6425433643175,422.9843576636532,765.9694401460669,419.0909090909091,762.3458597689929C411.13721735933757,754.9434655302256,373.8219526555609,754.3970312438066,365.4545454545454,747.1839921913128C361.3709341901996,743.6637562547427,358.1508880247058,738.6148439690409,359.99999999999994,735.0805270863837C365.00036882069594,725.5230269573352,454.88428436903206,724.6247951336502,455.45454545454544,717.3808361802505C455.89113274002193,711.8349196590112,405.52513832351565,707.4436150397722,401.81818181818176,698.3796974133725C399.4713294579095,692.6413844754618,412.81853365058197,684.6844813471348,411.8181818181818,677.8818936066374C410.6059823214335,669.6387003934731,388.4208863833034,661.1181194443287,389.09090909090907,653.2845290385553C389.824064634529,644.7128192035792,421.2955667215368,636.9223717963658,420.90909090909093,628.8823816495851C420.4759208070683,619.8709940284526,394.45970672713446,610.9058685189298,378.18181818181813,602.2027005043111C358.2142947995141,591.5268250461259,332.11897450254844,581.8226848363453,309.09090909090907,571.0330242394664C285.75527796792454,560.0992555910717,260.15732548445476,549.2718494931541,239.09090909090907,537.0001626809826C220.32174384097257,526.0666791036009,202.6641536383538,514.201369039859,188.18181818181816,501.9912152269399C175.73991558818662,491.50136399752097,167.9564591348762,480.4416470341293,156.36363636363635,469.32487392223845C143.36231811872432,456.8574440359868,127.64747665047696,443.91814249727025,113.63636363636363,431.0623068163331C99.7735597630838,418.34255154118637,80.3194689615391,406.8571722449714,72.72727272727272,392.604522531316C66.37531268611713,380.68013877354093,66.36363636363636,353.8213762811128,66.36363636363636,353.8213762811128" style="block-size:auto;d:path(&quot;M 240.909 820 C 240.909 820 400.478 820.321 455.455 820 C 489.781 819.8 539.048 820.142 539.091 819.024 C 539.12 818.285 502.764 817.245 502.727 815.77 C 502.685 814.101 533.402 811.248 549.091 809.263 C 565.207 807.225 598.02 806.106 598.182 803.732 C 598.291 802.13 582.518 800.702 576.364 798.201 C 571.391 796.179 569.978 792.899 563.636 790.848 C 549.144 786.159 511.551 785.831 487.273 783.039 C 465.078 780.486 432.563 782.055 423.636 774.905 C 419.563 771.643 422.984 765.969 419.091 762.346 C 411.137 754.943 373.822 754.397 365.455 747.184 C 361.371 743.664 358.151 738.615 360 735.081 C 365 725.523 454.884 724.625 455.455 717.381 C 455.891 711.835 405.525 707.444 401.818 698.38 C 399.471 692.641 412.819 684.685 411.818 677.882 C 410.606 669.639 388.421 661.118 389.091 653.285 C 389.824 644.713 421.296 636.922 420.909 628.882 C 420.476 619.871 394.46 610.906 378.182 602.203 C 358.214 591.527 332.119 581.823 309.091 571.033 C 285.755 560.099 260.157 549.272 239.091 537 C 220.322 526.067 202.664 514.201 188.182 501.991 C 175.74 491.501 167.956 480.442 156.364 469.325 C 143.362 456.857 127.647 443.918 113.636 431.062 C 99.7736 418.343 80.3195 406.857 72.7273 392.605 C 66.3753 380.68 66.3636 353.821 66.3636 353.821&quot;);fill:none;height:auto;inline-size:auto;overflow-x:visible;overflow-y:visible;perspective-origin:0px 0px;stroke:rgb(5, 109, 161);stroke-linecap:round;stroke-linejoin:round;stroke-width:3px;transform-origin:0px 0px;transition-duration:0.4s;transition-property:stroke;width:auto;"/><path class="DEU covid-line red-line" d="M380.90909090909093,819.8047828208882C380.90909090909093,819.8047828208882,596.6607372707363,818.5535061956292,696.3636363636363,817.6573938506588C786.2463372996455,816.8495437415759,952.4990684739296,818.1562004344123,952.7272727272726,814.7942085570197C952.8033424812598,813.6735200015983,936.5827478572419,811.8763570933885,924.5454545454545,810.6295754026354C903.3483981810192,808.4340567682958,865.2069440252127,807.0924495050543,836.3636363636361,805.3587115666179C808.579993095926,803.6886688320469,778.4428576945771,802.6877727877956,754.5454545454545,800.4132096957866C735.8024840424943,798.6292472846987,726.3712298154772,795.7389852368518,704.5454545454545,793.9059703920611C663.6061768529435,790.4677280928998,575.9779732301184,790.0278771506794,527.2727272727273,787.1384415161867C493.0560591587998,785.1085398454615,469.94053546781254,782.6753695819081,439.99999999999994,780.1106230681634C408.2293923137085,777.3891101082309,370.19052023902134,775.3429538264261,341.81818181818176,771.1957052220596C319.80198008817644,767.9775474324589,302.66247415096245,763.7803989798648,283.6363636363636,759.4176020823165C265.10562097123085,755.1683958902959,244.318462302176,750.3074509221867,229.09090909090907,745.427037579307C217.75744490791345,741.7946753046631,207.4003816531763,739.4771688307177,200,734.1695135838621C193.88801069944685,729.7859110076513,191.18299471458846,723.0809401969752,186.36363636363635,717.8363429315114C181.49199963503648,712.5348544750448,170.05822034793684,707.6775998728974,170.90909090909088,702.5443305677567C172.30602222634965,694.1166977647737,211.72940416666646,687.8272475079476,223.63636363636363,676.9708801041157C232.62319504367477,668.7769878008487,236.28141216631903,658.0411493860814,240.90909090909088,648.4040995607613C245.22537806762895,639.415516575784,249.14870035746856,631.0509371156512,250.90909090909088,621.138766878152C252.8792674026506,610.0453621878776,252.45369709737218,596.9995225794349,250.90909090909088,584.7632991703271C249.28449196862726,571.8933807817231,247.61884403801105,557.9189008919834,240.90909090909088,545.7849357410119C233.2208614274217,531.8814870133447,212.04913045410646,521.4294327695203,204.54545454545453,507.45729624206933C197.97828094961739,495.2289634625701,202.40278920925397,479.99939015942994,195.45454545454544,468.02342606149335C187.39398070802272,454.13027011859305,167.24263200810012,444.0063227264539,155.45454545454544,431.0623068163331C144.39822119323802,418.9218091625674,136.35831805446801,406.28978778941377,126.36363636363635,392.9949568895396C115.50304738443965,378.5483043179115,99.45043826454,363.43978441784503,92.72727272727272,347.50935415649906C86.72436332033573,333.2855589602771,85.45454545454544,302.9998373190174,85.45454545454544,302.9998373190174" style="block-size:auto;d:path(&quot;M 380.909 819.805 C 380.909 819.805 596.661 818.554 696.364 817.657 C 786.246 816.85 952.499 818.156 952.727 814.794 C 952.803 813.674 936.583 811.876 924.545 810.63 C 903.348 808.434 865.207 807.092 836.364 805.359 C 808.58 803.689 778.443 802.688 754.545 800.413 C 735.802 798.629 726.371 795.739 704.545 793.906 C 663.606 790.468 575.978 790.028 527.273 787.138 C 493.056 785.109 469.941 782.675 440 780.111 C 408.229 777.389 370.191 775.343 341.818 771.196 C 319.802 767.978 302.662 763.78 283.636 759.418 C 265.106 755.168 244.318 750.307 229.091 745.427 C 217.757 741.795 207.4 739.477 200 734.169 C 193.888 729.786 191.183 723.081 186.364 717.836 C 181.492 712.535 170.058 707.678 170.909 702.544 C 172.306 694.117 211.729 687.827 223.636 676.971 C 232.623 668.777 236.281 658.041 240.909 648.404 C 245.225 639.416 249.149 631.051 250.909 621.139 C 252.879 610.045 252.454 597 250.909 584.763 C 249.284 571.893 247.619 557.919 240.909 545.785 C 233.221 531.881 212.049 521.429 204.545 507.457 C 197.978 495.229 202.403 479.999 195.455 468.023 C 187.394 454.13 167.243 444.006 155.455 431.062 C 144.398 418.922 136.358 406.29 126.364 392.995 C 115.503 378.548 99.4504 363.44 92.7273 347.509 C 86.7244 333.286 85.4545 303 85.4545 303&quot;);fill:none;height:auto;inline-size:auto;overflow-x:visible;overflow-y:visible;perspective-origin:0px 0px;stroke:rgb(51, 51, 51);stroke-linecap:round;stroke-linejoin:round;stroke-width:3px;transform-origin:0px 0px;transition-duration:0.4s;transition-property:stroke;width:auto;"/></g><g style="block-size:auto;height:auto;inline-size:auto;overflow-x:visible;overflow-y:visible;perspective-origin:0px 0px;transform-origin:0px 0px;width:auto;"/><g style="block-size:auto;height:auto;inline-size:auto;overflow-x:visible;overflow-y:visible;perspective-origin:0px 0px;transform-origin:0px 0px;width:auto;"/></svg>